PathFileType	4	(X/Y/Z)	C:/Users/opensim2020/Desktop/walking_exp_matlab/subject02_walking13_straight_02.trc																																																																																																																									
DataRate	CameraRate	NumFrames	NumMarkers	Units	OrigDataRate	OrigDataStartFrame	OrigNumFrames																																																																																																																					
100	100	4	41	mm	100	866	125																																																																																																																					
Frame#	Time	LFHD			RFHD			LBHD			RBHD			C7			T10			CLAV			STRN			RBAK			LSHO			LUPA			LELB			LFRM			LWRA			LWRB			LFIN			RSHO			RUPA			RELB			RFRM			RWRA			RWRB			RFIN			LASI			RASI			LPSI			RPSI			LTHI			LKNE			LTIB			LANK			LHEE			LTOE			RTHI			RKNE			RTIB			RANK			RHEE			RTOE			*39			*40		
		X1	Y1	Z1	X2	Y2	Z2	X3	Y3	Z3	X4	Y4	Z4	X5	Y5	Z5	X6	Y6	Z6	X7	Y7	Z7	X8	Y8	Z8	X9	Y9	Z9	X10	Y10	Z10	X11	Y11	Z11	X12	Y12	Z12	X13	Y13	Z13	X14	Y14	Z14	X15	Y15	Z15	X16	Y16	Z16	X17	Y17	Z17	X18	Y18	Z18	X19	Y19	Z19	X20	Y20	Z20	X21	Y21	Z21	X22	Y22	Z22	X23	Y23	Z23	X24	Y24	Z24	X25	Y25	Z25	X26	Y26	Z26	X27	Y27	Z27	X28	Y28	Z28	X29	Y29	Z29	X30	Y30	Z30	X31	Y31	Z31	X32	Y32	Z32	X33	Y33	Z33	X34	Y34	Z34	X35	Y35	Z35	X36	Y36	Z36	X37	Y37	Z37	X38	Y38	Z38	X39	Y39	Z39	X40	Y40	Z40	X41	Y41	Z41
																																																																																																																												
1	0	-943.30847	1741.15063	-1408.36755	-956.88385	1715.48547	-1267.25989	-1079.2085	1679.98022	-1430.31775	-1104.61865	1654.70935	-1291.57886	-1151.8999	1535.31934	-1359.24463	-1205.2522	1257.65601	-1356.62439	-1015.22516	1464.48022	-1379.65674	-962.04736	1293.82715	-1380.30273	-1209.08533	1356.13745	-1297.19824	-1094.32886	1513.32947	-1541.44397	-1101.56726	1321.75269	-1645.74817	-1095.50647	1184.54712	-1677.66663	-1073.96143	1056.73181	-1706.0564	-1013.34674	932.20032	-1685.08008	-1053.42847	937.05945	-1724.44458	-1026.74133	877.00928	-1734.60498	-1068.92285	1493.51318	-1179.50635	-1088.19385	1302.90613	-1093.96265	-1062.29333	1156.42627	-1074.64026	-1009.33246	1044.97656	-1075.42822	-943.72729	934.59003	-1121.06689	-979.2218	918.1759	-1079.58179	-930.19849	865.57098	-1094.00391	-1004.21753	999.44458	-1520.48474	-974.76398	982.39368	-1269.96716	-1199.59595	1046.22839	-1415.46167	-1192.00171	1039.26221	-1300.84387	-1092.87549	688.06494	-1570.24695	-1130.47156	487.29132	-1540.6665	-1201.09412	304.67593	-1537.45422	-1210.46094	79.97187	-1506.79956	-1240.41138	52.25969	-1452.69739	-1058.64771	38.21998	-1542.35107	-974.91113	679.26526	-1197.53918	-924.16876	487.99219	-1235.83374	-1037.81274	342.11508	-1241.03674	-1138.22644	181.30066	-1285.79614	-1186.71643	142.34151	-1348.2771	-1029.70459	72.00121	-1260.427	-1045.23767	1811.29736	-1322.01917	-2845.85327	1034.37952	3357.34839
2	0.01	-931.03906	1740.57117	-1411.32056	-944.90991	1715.15369	-1270.58508	-1067.01233	1679.56616	-1433.87598	-1093.00134	1654.28125	-1295.28174	-1140.02197	1534.91443	-1363.14783	-1193.71301	1257.37097	-1360.52771	-1003.45624	1464.05579	-1383.3623	-950.30762	1293.2572	-1383.78809	-1197.82739	1355.97156	-1301.39185	-1082.19043	1513.19348	-1545.26013	-1086.41504	1322.93066	-1651.53174	-1076.00317	1186.0791	-1685.37061	-1049.75818	1059.39063	-1715.24036	-983.62164	937.45721	-1696.23145	-1024.72534	940.90906	-1734.79626	-996.13397	882.3219	-1746.23914	-1057.58984	1492.76819	-1183.08557	-1079.13367	1302.60803	-1097.06384	-1055.67053	1155.73975	-1077.63574	-1004.9389	1043.41821	-1078.66052	-942.65686	930.86444	-1124.6803	-977.15833	916.03918	-1081.60706	-930.60925	861.3866	-1097.62524	-995.13165	997.86694	-1524.39148	-964.01117	981.86523	-1274.3938	-1189.44055	1045.96948	-1417.64709	-1181.36865	1039.79309	-1302.96436	-1085.99854	686.60931	-1571.50378	-1125.62	486.41452	-1541.40527	-1197.92847	304.50806	-1537.79602	-1209.79578	80.10938	-1506.44702	-1240.08643	52.56813	-1452.25476	-1058.51831	38.27668	-1542.44482	-960.43488	680.93726	-1200.44006	-907.35803	489.42142	-1240.76563	-1013.13812	336.85107	-1247.93872	-1103.94824	171.06839	-1295.0249	-1149.33606	129.73587	-1358.1355	-989.11084	68.46191	-1269.24255	-1033.30652	1810.81763	-1325.36865	-2845.96973	1034.23682	3357.34741
3	0.02	-918.91187	1739.99609	-1414.50708	-933.27515	1714.03857	-1273.31702	-1054.79163	1678.98669	-1437.27063	-1081.04333	1653.60767	-1298.74683	-1128.04712	1534.26294	-1366.89185	-1182.125	1256.89014	-1364.02942	-991.52606	1463.28723	-1386.74536	-938.53589	1292.3656	-1387.10779	-1186.28162	1355.51819	-1305.23389	-1069.94116	1512.7229	-1548.79688	-1071.21594	1323.70288	-1656.79822	-1056.78381	1187.83875	-1693.23975	-1025.77161	1062.4032	-1724.33264	-954.07074	942.99652	-1706.90491	-996.22162	945.02527	-1744.80176	-965.48389	887.73413	-1757.1615	-1046.21436	1491.78296	-1186.54077	-1069.52649	1302.12549	-1100.51392	-1048.97314	1154.99524	-1080.65625	-1000.51489	1041.49817	-1081.38745	-941.53241	927.16571	-1128.04675	-975.1994	913.82147	-1083.94592	-930.92322	857.34656	-1101.04333	-985.54828	996.10828	-1528.06519	-953.474	980.8266	-1278.55908	-1179.13403	1045.62402	-1419.80298	-1170.64746	1040.19287	-1305.02136	-1079.01111	685.17731	-1572.66846	-1120.62927	485.53836	-1542.18298	-1195.0531	304.43823	-1538.08203	-1209.33618	80.3817	-1506.17554	-1239.64111	52.8373	-1451.7002	-1058.39917	38.12457	-1542.42834	-946.36755	682.46875	-1203.39636	-891.37787	490.64157	-1245.48865	-988.58899	331.59091	-1254.7572	-1069.41516	161.1739	-1303.58398	-1110.79297	117.64368	-1367.72913	-948.30884	65.82465	-1277.38184	-1021.29858	1810.16895	-1328.67993	NaN	NaN	NaN
4	0.03	-906.56372	1739.02625	-1417.24792	-921.44733	1713.27246	-1276.51685	-1042.52502	1678.2865	-1440.67957	-1069.21167	1652.78479	-1302.13635	-1115.99072	1533.45044	-1370.44666	-1170.50793	1256.25549	-1367.25415	-979.49701	1462.27502	-1389.99548	-926.66632	1291.13049	-1390.1709	-1174.69727	1354.82703	-1309.03918	-1057.578	1512.00391	-1552.01208	-1056.14124	1324.30188	-1661.80945	-1037.64661	1189.37939	-1700.47119	-1002.00409	1065.38879	-1732.89075	-924.745	949.31116	-1717.81116	-967.96216	949.42535	-1754.42542	-935.12567	893.48389	-1767.63257	-1034.74268	1490.64307	-1189.849	-1060.66174	1301.59595	-1103.62561	-1042.17847	1154.15991	-1083.61243	-996.37372	1039.875	-1084.53845	-940.39709	923.62378	-1131.33862	-973.36273	911.50427	-1086.7085	-931.15472	853.57092	-1104.05774	-977.04901	994.18512	-1531.67139	-942.21216	979.59631	-1282.07471	-1168.69385	1045.11938	-1421.93811	-1159.73853	1040.40149	-1307.03589	-1071.83838	683.81061	-1574.21509	-1115.74487	484.63733	-1542.99951	-1192.26953	304.32693	-1538.02515	-1208.79565	80.3597	-1505.60657	-1239.55188	53.43469	-1451.4165	-1058.16516	38.054	-1542.41797	-932.44684	683.88824	-1206.4646	-875.99365	491.04712	-1249.83472	-964.1723	326.34637	-1261.29102	-1033.39429	151.41602	-1312.08508	-1071.86841	105.89953	-1376.2511	-907.22797	63.75566	-1284.90247	-1009.23871	1809.36169	-1331.81677	-2845.88135	1034.46082	3357.0061
